HIERARCHY
ROOT root
{
	OFFSET 0.000000 0.000000 0.000000
	CHANNELS 6 Xposition Yposition Zposition Zrotation Yrotation Xrotation
	JOINT lhip
	{
		OFFSET 0.058581 -0.082280 -0.017664
		CHANNELS 3 Zrotation Yrotation Xrotation
		JOINT lknee
		{
			OFFSET 0.043451 -0.386469 0.008037
			CHANNELS 3 Zrotation Yrotation Xrotation
			JOINT lankle
			{
				OFFSET -0.014790 -0.426874 -0.037428
				CHANNELS 3 Zrotation Yrotation Xrotation
				JOINT ltoe
				{
					OFFSET 0.041054 -0.060286 0.122042
					CHANNELS 3 Zrotation Yrotation Xrotation
					End Site
					{
						OFFSET 0.000000 0.000000 0.000000
					}
				}
			}
		}
	}
	JOINT rhip
	{
		OFFSET -0.060310 -0.090513 -0.013543
		CHANNELS 3 Zrotation Yrotation Xrotation
		JOINT rknee
		{
			OFFSET -0.043257 -0.383688 -0.004843
			CHANNELS 3 Zrotation Yrotation Xrotation
			JOINT rankle
			{
				OFFSET 0.019056 -0.420046 -0.034562
				CHANNELS 3 Zrotation Yrotation Xrotation
				JOINT rtoe
				{
					OFFSET -0.034840 -0.062106 0.130323
					CHANNELS 3 Zrotation Yrotation Xrotation
					End Site
					{
						OFFSET 0.000000 0.000000 0.000000
					}
				}
			}
		}
	}
	JOINT lowerback
	{
		OFFSET 0.004439 0.124404 -0.038385
		CHANNELS 3 Zrotation Yrotation Xrotation
		JOINT upperback
		{
			OFFSET 0.004488 0.137956 0.026820
			CHANNELS 3 Zrotation Yrotation Xrotation
			JOINT chest
			{
				OFFSET -0.002265 0.056032 0.002855
				CHANNELS 3 Zrotation Yrotation Xrotation
				JOINT lowerneck
				{
					OFFSET -0.013390 0.211636 -0.033468
					CHANNELS 3 Zrotation Yrotation Xrotation
					JOINT upperneck
					{
						OFFSET 0.010113 0.088937 0.050410
						CHANNELS 3 Zrotation Yrotation Xrotation
						End Site
						{
							OFFSET 0.000000 0.000000 0.000000
						}
					}
				}
				JOINT lclavicle
				{
					OFFSET 0.071702 0.114000 -0.018898
					CHANNELS 3 Zrotation Yrotation Xrotation
					JOINT lshoulder
					{
						OFFSET 0.122921 0.045205 -0.019046
						CHANNELS 3 Zrotation Yrotation Xrotation
						JOINT lelbow
						{
							OFFSET 0.255332 -0.015649 -0.022946
							CHANNELS 3 Zrotation Yrotation Xrotation
							JOINT lwrist
							{
								OFFSET 0.265709 0.012698 -0.007375
								CHANNELS 3 Zrotation Yrotation Xrotation
								End Site
								{
									OFFSET 0.000000 0.000000 0.000000
								}
							}
						}
					}
				}
				JOINT rclavicle
				{
					OFFSET -0.082954 0.112472 -0.023707
					CHANNELS 3 Zrotation Yrotation Xrotation
					JOINT rshoulder
					{
						OFFSET -0.113228 0.046853 -0.008472
						CHANNELS 3 Zrotation Yrotation Xrotation
						JOINT relbow
						{
							OFFSET -0.260127 -0.014369 -0.031269
							CHANNELS 3 Zrotation Yrotation Xrotation
							JOINT rwrist
							{
								OFFSET -0.269108 0.006794 -0.006027
								CHANNELS 3 Zrotation Yrotation Xrotation
								End Site
								{
									OFFSET 0.000000 0.000000 0.000000
								}
							}
						}
					}
				}
			}
		}
	}
}
MOTION
Frames: 8
Frame Time: 0.033333
0.453982 0.181340 0.994690 89.595503 2.817679 95.762099 4.530908 4.041979 -4.510928 2.881442 -2.782923 -4.472553 -1.790451 9.448671 -3.931700 0.000000 -0.000000 0.000000 -1.746562 -1.503104 -7.378319 -1.447330 1.677235 1.564909 7.414975 -4.604950 -3.648375 0.000000 -0.000000 0.000000 -0.591454 0.712922 0.113147 2.033324 -2.975793 2.943118 0.488355 3.121726 -7.864918 -5.531410 2.228736 10.385211 -1.248488 13.119299 2.075878 -17.308293 -7.628932 -1.266510 -64.490722 -18.350226 27.241654 27.988945 -80.574943 5.027079 26.217301 -1.102547 -5.737685 13.112571 6.753536 1.861971 47.932562 27.926228 15.939051 136.315797 81.018527 152.363401 -35.067557 9.220691 -11.216808 
0.453958 0.180950 0.994084 89.345479 2.996610 95.752402 4.724496 4.417298 -4.574990 2.927390 -3.178862 -4.298157 -1.912875 9.781696 -4.009412 0.000000 -0.000000 0.000000 -1.455102 -1.645518 -7.595590 -1.483448 2.328760 1.811060 7.249985 -4.926856 -3.746831 0.000000 -0.000000 0.000000 -0.554925 0.844225 0.099468 2.058510 -2.976885 2.837158 0.431128 3.490798 -7.790788 -5.723460 1.596751 10.392214 -0.684884 13.656461 2.339382 -17.323154 -8.145080 -1.393707 -64.089629 -18.267144 26.808741 21.357640 -80.602424 11.127057 29.275740 -0.204862 -4.366509 13.351835 7.078235 2.923400 45.951420 29.169837 15.229779 95.134946 80.095011 114.617912 -45.080590 12.688693 0.194719 
0.453678 0.180094 0.994289 88.726920 2.981108 95.072228 4.794362 3.797026 -3.437075 2.964474 -2.004152 -4.758440 -0.958899 9.655581 -3.840760 0.000000 -0.000000 0.000000 -1.526830 -1.191479 -7.025568 -1.492687 1.877930 1.974330 6.726613 -4.156658 -3.562197 0.000000 -0.000000 0.000000 -0.701750 0.967792 0.479247 1.813537 -2.542185 3.791128 0.405137 3.356229 -8.462486 -4.545572 2.097639 10.321729 -1.073480 13.145885 2.306588 -16.515279 -7.497330 -2.329019 -64.823308 -17.740498 29.354678 34.569220 -80.037497 -2.875959 24.472869 -0.940198 -4.009844 12.053867 8.159833 1.018648 48.290140 28.125874 20.336560 43.587788 77.365565 63.681260 -23.144639 6.361456 -10.565937 
0.453383 0.179601 0.994567 88.195721 2.871286 94.741337 4.599452 3.369689 -2.865588 3.072672 -1.170643 -4.956586 0.071369 9.689930 -3.902830 0.000000 -0.000000 0.000000 -1.741676 -1.082362 -6.887885 -1.341042 1.868223 2.258255 6.104833 -3.682217 -3.555208 0.000000 -0.000000 0.000000 -1.040573 1.113660 0.881364 1.853645 -2.285780 3.997876 0.420764 3.268442 -8.814696 -4.058056 2.162941 9.416992 -1.180275 13.197658 3.024809 -16.099891 -5.818448 -3.848286 -65.559938 -17.334989 32.440400 40.679919 -79.846045 -10.839242 23.382360 0.844144 -1.665796 12.041421 8.340778 -0.486442 48.068975 28.699390 24.159123 27.745172 72.418574 40.369764 -12.010008 -2.792567 -22.922380 
0.453324 0.179433 0.994565 88.294425 2.807423 94.936820 4.534685 3.347785 -3.139665 3.064091 -1.029280 -4.874370 -0.061120 9.484585 -3.938921 0.000000 -0.000000 0.000000 -1.799449 -1.200235 -7.110342 -1.336778 1.763549 2.320164 6.264600 -3.474080 -3.661354 0.000000 -0.000000 0.000000 -1.230379 1.267040 0.884155 1.923630 -2.158470 3.919425 0.435883 3.486866 -8.577662 -4.278143 2.204229 8.677534 -0.952300 12.471952 2.628713 -16.133699 -5.577005 -4.226829 -65.676189 -17.404901 32.694883 39.119588 -80.405484 -9.423534 23.698779 0.404487 -1.350902 12.461260 7.867501 -0.388266 47.147682 27.300197 23.587930 38.290859 75.494029 50.991178 -17.390956 -1.398142 -18.035780 
0.453590 0.179857 0.994606 89.076414 2.670521 95.323446 4.415923 3.063905 -3.677467 3.039302 -1.093883 -4.847592 -0.283338 8.963726 -3.799256 0.000000 -0.000000 0.000000 -1.963884 -1.352154 -7.228138 -1.358885 1.237771 2.069462 6.722004 -3.546005 -3.684936 0.000000 -0.000000 0.000000 -1.025646 1.360997 0.609924 1.795310 -2.392580 3.947177 0.283454 3.265305 -8.340119 -4.551042 2.138594 8.524256 -1.014718 12.026601 2.096405 -16.225052 -6.243584 -3.563302 -65.498287 -17.474815 31.852890 41.422466 -80.453533 -10.282848 23.085351 -0.359019 -2.821539 12.487998 7.042891 -0.387809 46.662018 25.677978 21.239863 76.456212 82.776304 92.394940 -19.340687 0.363668 -16.877642 
0.454075 0.180514 0.994647 90.057131 2.546257 95.945730 4.292412 2.956301 -4.587971 2.991311 -1.512064 -4.697194 -0.690945 8.502552 -3.619546 0.000000 -0.000000 0.000000 -2.088036 -1.470412 -7.557941 -1.412828 0.639141 1.832558 7.154186 -3.778803 -3.764232 0.000000 -0.000000 0.000000 -0.860160 1.157196 0.302016 1.955631 -2.901189 3.453397 0.148756 3.058530 -8.164334 -5.063681 2.164872 8.781708 -1.018208 12.023297 1.981624 -16.304388 -6.613682 -2.638597 -65.543964 -17.563705 30.668175 39.190921 -80.532067 -6.994044 23.768959 -0.805084 -4.483906 12.842320 6.263912 0.260314 47.302870 25.532134 18.928581 140.445436 81.960574 157.829135 -28.917282 3.817602 -9.883157 
0.454726 0.181004 0.994279 90.718098 2.676993 96.144978 4.470092 3.709452 -5.075477 2.860561 -3.177560 -4.463897 -1.631198 8.999022 -3.756281 0.000000 -0.000000 0.000000 -1.794549 -1.788310 -7.511001 -1.505142 1.326944 1.519862 7.371404 -4.970020 -3.817419 0.000000 -0.000000 0.000000 -0.639713 0.761550 0.347502 2.095047 -3.299438 2.646417 0.297101 3.090340 -7.626961 -5.766649 1.502496 9.366068 -0.882280 12.638597 1.569684 -17.095954 -7.445998 -1.476616 -64.612877 -17.930658 27.917315 26.200346 -81.413245 6.842426 27.099062 -0.244144 -5.548669 13.317805 5.694545 1.602276 46.652797 27.165847 15.301770 140.523105 79.822852 159.467037 -41.507788 8.427505 -3.399140 
